<svg id="图层_1" data-name="图层 1" xmlns="http://www.w3.org/2000/svg" viewBox="0 0 500 500"><defs><style>.cls-1{fill:#48a6a5;stroke:#48a6a5;stroke-miterlimit:10;stroke-width:0.75px;}</style></defs><path class="cls-1" d="M328.53,199.7a4.88,4.88,0,0,0-4.89,4.89v90.87a27.48,27.48,0,0,1-27.46,27.45H203.82a27.48,27.48,0,0,1-27.46-27.45V204.57a27.48,27.48,0,0,1,27.46-27.46h92.36a27.48,27.48,0,0,1,27.46,27.46,4.89,4.89,0,0,0,9.78,0,37.29,37.29,0,0,0-37.24-37.24H203.82a37.29,37.29,0,0,0-37.24,37.24v90.87a37.28,37.28,0,0,0,37.24,37.23h92.36a37.28,37.28,0,0,0,37.24-37.23V204.57a4.89,4.89,0,0,0-4.89-4.87Z"/><path class="cls-1" d="M282.69,252.11a4.89,4.89,0,0,0,0-9.78H256.54L286.22,211a4.88,4.88,0,1,0-7.08-6.72l-29,30.58-27.32-30.52a4.89,4.89,0,0,0-7.28,6.53l28.12,31.42H217.9a4.89,4.89,0,1,0,0,9.78h27.5v16.8H217.9a4.89,4.89,0,0,0,0,9.78h27.5v17.95a4.89,4.89,0,1,0,9.78,0V278.69h27.51a4.89,4.89,0,0,0,0-9.78H255.18v-16.8Z"/></svg>